<svg width="409" height="308" viewBox="0 0 409 308" fill="none" xmlns="http://www.w3.org/2000/svg">
<g clip-path="url(#clip0_312_1037)">
<path d="M306.276 105.449C294.968 116.401 277.833 125.2 267.993 135.655C259.339 144.919 254.079 155.754 248.694 166.421C247.237 169.346 245.887 172.26 244.537 175.175C232.403 201.583 220.561 229.943 194.112 247.889C170.606 263.76 137.634 268.645 109.565 261.199C81.4968 253.753 59.0429 234.63 49.3073 211.527C41.6477 193.267 41.8481 172.293 51.185 154.151C60.6208 135.909 79.441 120.837 102.042 114.944C128.337 108.075 159.299 112.912 181.008 98.648C195.065 89.3276 200.231 75.1733 210.838 63.6577C217.216 56.675 225.411 50.6015 235.176 47.439C256.604 40.5765 288.467 46.9476 304.866 59.1731C312.074 64.5243 316.711 72.4545 317.372 80.667C318.397 90.4643 313.513 98.3864 306.276 105.449Z" fill="url(#paint0_linear_312_1037)"/>
<path opacity="0.56" d="M333.267 267.213C317.467 271.813 304.467 254.213 291.967 248.013C278.567 241.413 266.567 238.213 255.067 238.113C232.267 238.013 216.367 256.013 203.167 272.313C188.467 290.413 172.567 306.813 147.367 307.413C141.867 307.513 134.167 306.513 129.167 300.913C120.367 291.113 123.867 277.413 126.567 266.113C134.767 231.013 142.067 176.213 99.0669 160.613C92.4669 158.213 85.6669 155.713 81.4669 150.313C60.8669 123.613 87.9669 104.013 111.667 95.5128C135.367 87.0128 161.967 81.8128 183.867 67.9128C207.167 53.1128 217.367 22.4128 244.467 12.9128C252.267 10.2128 259.767 10.9128 265.067 14.8128C271.767 19.7128 274.967 28.4128 276.767 34.4128C284.767 61.0128 262.967 87.3128 272.567 113.713C278.767 130.813 294.867 142.513 309.767 151.813C334.467 167.113 353.667 183.813 354.167 215.313C354.367 230.913 350.467 246.313 342.967 258.813C340.567 262.813 337.967 265.413 334.867 266.613C334.367 266.813 333.767 267.013 333.267 267.213Z" fill="#4CAF50"/>
<path d="M132.467 106.112C132.067 89.1124 132.767 71.2124 139.167 55.1124C145.067 40.4124 159.767 23.1124 176.967 22.2124C188.067 21.6124 193.567 35.3124 200.167 41.9124C242.267 84.4124 307.267 56.8124 355.567 83.2124C364.067 87.8124 371.667 95.2124 374.167 104.812C376.767 114.812 373.367 125.412 368.667 134.612C357.567 156.212 340.267 172.312 322.667 188.512C307.167 202.712 280.367 217.512 278.567 241.012C277.867 250.512 285.167 258.612 287.167 267.512C292.267 290.812 267.067 305.912 247.167 307.712C224.067 309.812 199.567 300.512 183.867 282.912C163.367 259.912 157.267 209.412 120.367 205.512C116.767 205.112 112.767 205.312 109.867 203.212C105.667 200.212 105.367 193.712 107.667 189.112C111.067 182.112 117.067 177.112 121.367 170.712C133.667 152.012 132.967 128.912 132.467 106.112Z" fill="url(#paint1_linear_312_1037)"/>
<path d="M76.7079 81.8412C67.7002 71.7758 51.2476 73.6953 39.8316 77.6844C22.6109 83.6424 -1.36391 97.8364 7.79362 119.741C8.93914 122.428 10.5227 125.025 12.4286 127.19C17.4764 133.092 24.9408 136.535 32.5414 137.53C39.0277 138.435 46.3133 137.896 52.2344 134.717C55.6105 132.927 58.2269 130.107 59.2333 126.339C59.7236 124.503 59.8791 122.371 59.7897 120.381C59.6229 118.68 58.355 116.064 59.689 114.558C61.9123 112.046 66.3565 113.233 69.3072 112.262C73.2821 110.943 77.0645 108.02 79.2819 104.368C83.6908 97.162 82.4062 88.0209 76.7079 81.8412Z" fill="url(#paint2_linear_312_1037)"/>
<path d="M345.466 28.513C344.966 27.913 344.466 27.413 343.966 26.913C343.066 26.113 342.166 25.313 341.666 24.213C340.766 22.113 341.866 19.813 341.466 17.613C341.066 15.213 339.666 12.813 337.966 11.013C329.666 2.71297 315.866 6.51297 306.866 11.513C299.766 15.413 295.866 21.813 297.366 29.913C298.666 36.713 303.166 43.513 309.266 46.913C309.566 47.113 309.866 47.213 310.166 47.413C311.866 48.313 313.666 49.113 315.066 50.513C316.666 52.213 317.866 54.513 319.666 56.113C321.166 57.513 323.266 58.513 325.166 59.013C329.966 60.213 334.966 58.613 339.166 56.513C344.666 53.813 348.866 48.613 349.766 42.513C350.466 37.513 348.666 32.313 345.466 28.513Z" fill="url(#paint3_linear_312_1037)"/>
<path d="M364.767 12.7125C364.667 12.4125 364.467 12.2125 364.267 12.0125C363.967 11.5125 363.567 11.0125 363.167 10.6125C361.567 8.9125 359.167 7.9125 356.867 7.8125C356.867 7.8125 356.867 7.8125 356.767 7.8125C356.667 7.8125 356.667 7.8125 356.567 7.8125H356.467C355.667 7.8125 354.767 7.9125 354.067 8.0125C352.367 8.4125 350.667 9.3125 349.467 10.5125C347.267 12.8125 346.267 16.0125 346.967 19.1125C347.167 20.2125 347.667 21.2125 348.267 22.1125C348.267 22.1125 348.267 22.1125 348.267 22.2125C350.167 25.8125 354.567 27.8125 358.567 26.8125C362.667 25.8125 365.767 22.2125 365.867 17.9125C366.067 16.1125 365.667 14.2125 364.767 12.7125Z" fill="url(#paint4_linear_312_1037)"/>
<path d="M342.966 0.11253C338.266 1.31253 340.066 8.61252 344.766 7.41253C349.466 6.31253 347.666 -0.98747 342.966 0.11253Z" fill="url(#paint5_linear_312_1037)"/>
<path d="M375.367 189.812C383.099 189.812 389.367 183.544 389.367 175.812C389.367 168.081 383.099 161.812 375.367 161.812C367.635 161.812 361.367 168.081 361.367 175.812C361.367 183.544 367.635 189.812 375.367 189.812Z" stroke="url(#paint6_linear_312_1037)" stroke-width="3" stroke-miterlimit="10"/>
<path d="M392.967 201.412C396.281 201.412 398.967 198.726 398.967 195.412C398.967 192.098 396.281 189.412 392.967 189.412C389.653 189.412 386.967 192.098 386.967 195.412C386.967 198.726 389.653 201.412 392.967 201.412Z" stroke="url(#paint7_linear_312_1037)" stroke-width="1.2857" stroke-miterlimit="10"/>
<path d="M403.967 187.013C406.508 187.013 408.567 184.953 408.567 182.413C408.567 179.872 406.508 177.812 403.967 177.812C401.427 177.812 399.367 179.872 399.367 182.413C399.367 184.953 401.427 187.013 403.967 187.013Z" stroke="url(#paint8_linear_312_1037)" stroke-width="0.985" stroke-miterlimit="10"/>
</g>
<defs>
<linearGradient id="paint0_linear_312_1037" x1="-22.3313" y1="329.867" x2="241.83" y2="-15.9431" gradientUnits="userSpaceOnUse">
<stop stop-color="#4CAF50"/>
<stop offset="1" stop-color="#6B4226"/>
</linearGradient>
<linearGradient id="paint1_linear_312_1037" x1="127.086" y1="132.968" x2="390.874" y2="233.215" gradientUnits="userSpaceOnUse">
<stop offset="2.54313e-07" stop-color="#6B4226"/>
<stop offset="1" stop-color="#4CAF50"/>
</linearGradient>
<linearGradient id="paint2_linear_312_1037" x1="24.1652" y1="82.9753" x2="63.7006" y2="124.63" gradientUnits="userSpaceOnUse">
<stop offset="2.54313e-07" stop-color="#6B4226"/>
<stop offset="1" stop-color="#4CAF50"/>
</linearGradient>
<linearGradient id="paint3_linear_312_1037" x1="310.354" y1="48.5563" x2="341.055" y2="13.715" gradientUnits="userSpaceOnUse">
<stop stop-color="#4CAF50"/>
<stop offset="1" stop-color="#6B4226"/>
</linearGradient>
<linearGradient id="paint4_linear_312_1037" x1="350.084" y1="24.504" x2="362.767" y2="10.1107" gradientUnits="userSpaceOnUse">
<stop stop-color="#4CAF50"/>
<stop offset="1" stop-color="#6B4226"/>
</linearGradient>
<linearGradient id="paint5_linear_312_1037" x1="341.369" y1="6.62288" x2="346.31" y2="1.01548" gradientUnits="userSpaceOnUse">
<stop stop-color="#4CAF50"/>
<stop offset="1" stop-color="#6B4226"/>
</linearGradient>
<linearGradient id="paint6_linear_312_1037" x1="362.638" y1="184.659" x2="388.096" y2="166.966" gradientUnits="userSpaceOnUse">
<stop stop-color="#4CAF50"/>
<stop offset="1" stop-color="#6B4226"/>
</linearGradient>
<linearGradient id="paint7_linear_312_1037" x1="389.006" y1="200.665" x2="397.053" y2="190.092" gradientUnits="userSpaceOnUse">
<stop stop-color="#4CAF50"/>
<stop offset="1" stop-color="#6B4226"/>
</linearGradient>
<linearGradient id="paint8_linear_312_1037" x1="400.948" y1="186.428" x2="407.113" y2="178.328" gradientUnits="userSpaceOnUse">
<stop stop-color="#4CAF50"/>
<stop offset="1" stop-color="#6B4226"/>
</linearGradient>
<clipPath id="clip0_312_1037">
<rect width="408.57" height="308.01" fill="white"/>
</clipPath>
</defs>
</svg>
